<?xml version="1.0"?><svg xmlns="http://www.w3.org/2000/svg" viewBox="0 0 128 128"><g fill="#1d1d1b"><path d="m117.08 39.24c-10.06-19.48-26.37-36.51-55.25-35.17-36.72 1.71-54.63 30.14-57.04 51.09s3.25 34.88 10.68 45.88c7.44 11 22.62 21.05 27.23 22.21s7.33 1.05 8.8-.73 3.98-12.57.63-15.82-11.94-2.93-15.29-3.46c-3.35-.52-5.66-2.3-6.91-6.28-1.26-3.98-3.98-6.08-3.98-6.08s3.77 1.15 6.6 4.29 6.91 5.03 11 5.34c4.08.31 7.33-1.99 7.75-3.77s.42-6.28.21-7.44-.31-1.26-7.65-2.93c-7.33-1.68-12.25-13.2-12.88-22.52s7.12-21.89 7.12-21.89c-4.71-4.92-1.57-12.78-1.57-12.78 8.17 0 14.56 6.7 15.82 6.7s5.24-1.36 11.73-1.57 11 3.25 11.94 3.14 2.51-1.47 7.65-5.13c5.13-3.67 12.36-1.68 12.36-1.68 3.04 4.4.73 10.37.42 11.1s-1.57 2.09-1.36 3.25 1.05 1.26 2.93 2.72 5.76 6.81 4.92 17.18-9.43 17.39-15.4 20.22-9.11 1.36-11 1.26-1.68 2.51-.73 9.01c.94 6.49 1.26 16.03.94 21.16-.31 5.13-1.68 7.33 2.83 6.7 4.5-.63 19.06-5.13 32.78-24.61s14.77-39.91 4.71-59.39zm-7.33 52.06c-9.85 15.82-28.7 23.04-28.7 23.04s.94-17.28-2.41-23.99c0 0 11.84-.21 18.85-8.17 7.02-7.96 14.77-23.88 1.57-38.23 0 0 5.24-6.91-.63-16.24 0 0-10.58-3.67-19.69 3.46 0 0-15.4-4.61-26.71.52 0 0-15.5-8.8-19.8-6.18-4.29 2.62-3.35 16.24-3.35 16.24s-8.59 9.53-5.66 25.14 13.83 23.04 24.82 23.57c0 0 .84 5.24-3.35 4.71s-9.32-5.97-13.3-8.8-9.64-2.62-11.94-1.57-2.3 3.35-.73 4.4 5.24 2.3 6.39 5.45c1.15 3.14 2.51 7.86 6.39 10.06s9.32 1.05 12.57 2.72c3.25 1.68 2.62 8.59 2.62 8.59s-6.6-1.05-14.66-6.81c-8.07-5.76-20.32-17.18-23.25-33.41s.31-31.95 7.44-42.94c7.12-11 24.3-25.87 49.33-25.87s40.64 19.48 47.66 34.25 6.39 34.25-3.46 50.07z"/><path d="m16.73 43.12c.74-1.08 3.04 0 3.14 1.47s-4.29 5.13-4.71 14.56 1.36 13.2 1.47 14.35-1.89 1.68-2.41 1.47-3.04-6.08-2.09-16.13c.94-10.06 3.46-14.04 4.61-15.71z"/><path d="m49.62 12.64c1.58-1.77 5.55-2.93 12.36-3.14s10.68.94 11.31 2.3-.73 2.83-1.68 2.72-3.31-1.36-9.95-1.15-9.11 1.47-10.16 1.89-2.72-1.68-1.89-2.62z"/><path d="m83.56 98.11c-.1-.52 1.36-1.89 2.2-1.68s5.97 9.01 5.76 9.64-2.09 1.57-2.51 1.47-5.24-8.38-5.45-9.43z"/><path d="m88.59 95.07c-.15-.69 2.2-2.2 3.04-1.78s5.34 8.8 5.13 9.32-2.2 1.68-2.72 1.26-5.13-7.33-5.45-8.8z"/><path d="m95.19 92.87c-.42-.84 1.68-1.89 2.41-1.89s3.88 5.34 3.98 6.28-1.78 2.09-2.3 1.68-3.67-5.24-4.08-6.08z"/><path d="m100.42 89.83c-.39-.62 1.15-1.99 1.68-1.99s3.46 3.35 3.46 4.19-1.15 2.3-1.78 2.09-2.83-3.46-3.35-4.29z"/><path d="m103.78 86.06c-.23-.81 1.15-1.99 1.89-1.99s2.51 2.62 2.62 3.46-1.26 2.41-1.78 2.2-2.51-2.93-2.72-3.67z"/><path d="m107.23 80.82c-.63-.38.73-1.99 1.57-1.99s2.62 1.68 2.41 2.72-.94 1.89-1.57 1.89-1.89-2.3-2.41-2.62z"/></g></svg>